<?xml version="1.0" standalone="yes"?>

<svg version="1.1" viewBox="0.0 0.0 129.0 129.0" fill="none" stroke="none" stroke-linecap="square" stroke-miterlimit="10" xmlns="http://www.w3.org/2000/svg" xmlns:xlink="http://www.w3.org/1999/xlink"><clipPath id="p.0"><path d="m0 0l129.0 0l0 129.0l-129.0 0l0 -129.0z" clip-rule="nonzero"></path></clipPath><g clip-path="url(#p.0)"><path fill="#000000" fill-opacity="0.0" d="m0 0l129.0 0l0 129.0l-129.0 0z" fill-rule="nonzero"></path><path fill="#000000" fill-opacity="0.0" d="m88.47063 100.45447l4.564934 3.923172l-1.4984283 8.70153z" fill-rule="nonzero"></path><path stroke="#777777" stroke-width="1.0" stroke-linejoin="round" stroke-linecap="butt" d="m88.47063 100.45447l4.564934 3.923172l-1.4984283 8.70153z" fill-rule="nonzero"></path><path fill="#000000" fill-opacity="0.0" d="m40.246086 100.311424l-4.4937935 3.6378632l1.4265404 9.12986z" fill-rule="nonzero"></path><path stroke="#777777" stroke-width="1.0" stroke-linejoin="round" stroke-linecap="butt" d="m40.246086 100.311424l-4.4937935 3.6378632l1.4265404 9.12986z" fill-rule="nonzero"></path><path fill="#000000" fill-opacity="0.0" d="m64.63839 105.23201l2.8912659 -0.63726044l3.0283127 -0.9210739l1.6519394 -2.0540695l-0.07712555 -12.864334l-6.133751 -0.071136475l-1.4976807 2.9496841z" fill-rule="nonzero"></path><path stroke="#777777" stroke-width="1.0" stroke-linejoin="round" stroke-linecap="butt" d="m64.63839 105.23201l2.8912659 -0.63726044l3.0283127 -0.9210739l1.6519394 -2.0540695l-0.07712555 -12.864334l-6.133751 -0.071136475l-1.4976807 2.9496841z" fill-rule="nonzero"></path><path fill="#000000" fill-opacity="0.0" d="m64.3632 105.23199l-2.8912697 -0.63726044l-3.0283127 -0.9210739l-1.6519394 -2.0540695l-0.13778687 -13.078499l6.7762566 0.21417236l1.0700912 2.87854z" fill-rule="nonzero"></path><path stroke="#777777" stroke-width="1.0" stroke-linejoin="round" stroke-linecap="butt" d="m64.3632 105.23199l-2.8912697 -0.63726044l-3.0283127 -0.9210739l-1.6519394 -2.0540695l-0.13778687 -13.078499l6.7762566 0.21417236l1.0700912 2.87854z" fill-rule="nonzero"></path><path fill="#000000" fill-opacity="0.0" d="m40.174397 100.24027l16.19143 0.071136475l-0.07114029 1.2842636l1.9260178 2.1394348l6.133751 1.4984283l6.276779 -1.4984283l1.5695724 -2.2105713l0.071136475 -1.0700989l16.19143 0l2.9242172 12.339394l-1.2123718 0.28530884l-2.4254913 0.4283371l-47.07585 -0.35720062l-3.4948387 0z" fill-rule="nonzero"></path><path stroke="#777777" stroke-width="1.0" stroke-linejoin="round" stroke-linecap="butt" d="m40.174397 100.24027l16.19143 0.071136475l-0.07114029 1.2842636l1.9260178 2.1394348l6.133751 1.4984283l6.276779 -1.4984283l1.5695724 -2.2105713l0.071136475 -1.0700989l16.19143 0l2.9242172 12.339394l-1.2123718 0.28530884l-2.4254913 0.4283371l-47.07585 -0.35720062l-3.4948387 0z" fill-rule="nonzero"></path><path fill="#000000" fill-opacity="0.0" d="m1.5816158 15.492523l125.82423 0l0 73.196434l-125.82423 0z" fill-rule="nonzero"></path><path stroke="#777777" stroke-width="1.0" stroke-linejoin="round" stroke-linecap="butt" d="m1.5816158 15.492523l125.82423 0l0 73.196434l-125.82423 0z" fill-rule="nonzero"></path><path fill="#000000" fill-opacity="0.0" d="m3.0083585 17.2046l122.71353 0l0 69.323944l-122.71353 0z" fill-rule="nonzero"></path><path stroke="#777777" stroke-width="1.0" stroke-linejoin="round" stroke-linecap="butt" d="m3.0083585 17.2046l122.71353 0l0 69.323944l-122.71353 0z" fill-rule="nonzero"></path></g></svg>

