<?xml version="1.0" standalone="yes"?>

<svg version="1.1" viewBox="0.0 0.0 129.0 129.0" fill="none" stroke="none" stroke-linecap="square" stroke-miterlimit="10" xmlns="http://www.w3.org/2000/svg" xmlns:xlink="http://www.w3.org/1999/xlink"><clipPath id="p.0"><path d="m0 0l129.0 0l0 129.0l-129.0 0l0 -129.0z" clip-rule="nonzero"></path></clipPath><g clip-path="url(#p.0)"><path fill="#000000" fill-opacity="0.0" d="m0 0l129.0 0l0 129.0l-129.0 0z" fill-rule="nonzero"></path><path fill="#000000" fill-opacity="0.0" d="m87.81572 30.41076l0 0c0 -3.6992931 2.9988708 -6.698162 6.698166 -6.698162l26.792648 0l0 0c1.7764664 0 3.4801712 0.7056961 4.736313 1.9618454c1.2561493 1.2561493 1.961853 2.9598541 1.961853 4.7363167l0 68.17848c0 3.6992874 -2.9988708 6.6981583 -6.698166 6.6981583l-26.792648 0c-3.699295 0 -6.698166 -2.9988708 -6.698166 -6.6981583z" fill-rule="nonzero"></path><path stroke="#777777" stroke-width="1.0" stroke-linejoin="round" stroke-linecap="butt" d="m87.81572 30.41076l0 0c0 -3.6992931 2.9988708 -6.698162 6.698166 -6.698162l26.792648 0l0 0c1.7764664 0 3.4801712 0.7056961 4.736313 1.9618454c1.2561493 1.2561493 1.961853 2.9598541 1.961853 4.7363167l0 68.17848c0 3.6992874 -2.9988708 6.6981583 -6.698166 6.6981583l-26.792648 0c-3.699295 0 -6.698166 -2.9988708 -6.698166 -6.6981583z" fill-rule="nonzero"></path><path fill="#000000" fill-opacity="0.0" d="m89.99811 32.971977l35.590553 0l0 62.740158l-35.590553 0z" fill-rule="nonzero"></path><path stroke="#777777" stroke-width="1.0" stroke-linejoin="round" stroke-linecap="butt" d="m89.99811 32.971977l35.590553 0l0 62.740158l-35.590553 0z" fill-rule="nonzero"></path><path fill="#000000" fill-opacity="0.0" d="m105.08276 100.018265l0 0c0 -1.4959488 1.2127075 -2.708664 2.708664 -2.708664l0 0c0.7183838 0 1.407341 0.2853775 1.9153137 0.7933502c0.5079727 0.5079727 0.7933426 1.1969299 0.7933426 1.9153137l0 0c0 1.4959564 -1.2127075 2.708664 -2.7086563 2.708664l0 0c-1.4959564 0 -2.708664 -1.2127075 -2.708664 -2.708664z" fill-rule="nonzero"></path><path stroke="#777777" stroke-width="1.0" stroke-linejoin="round" stroke-linecap="butt" d="m105.08276 100.018265l0 0c0 -1.4959488 1.2127075 -2.708664 2.708664 -2.708664l0 0c0.7183838 0 1.407341 0.2853775 1.9153137 0.7933502c0.5079727 0.5079727 0.7933426 1.1969299 0.7933426 1.9153137l0 0c0 1.4959564 -1.2127075 2.708664 -2.7086563 2.708664l0 0c-1.4959564 0 -2.708664 -1.2127075 -2.708664 -2.708664z" fill-rule="nonzero"></path><path fill="#000000" d="m107.39917 26.260384l0 0c0 -0.26092148 0.21151733 -0.47244072 0.47244263 -0.47244072l0 0c0.12529755 0 0.24546051 0.049776077 0.33406067 0.13837433c0.08860016 0.08860016 0.13837433 0.20876884 0.13837433 0.3340664l0 0c0 0.2609234 -0.21151733 0.47244072 -0.472435 0.47244072l0 0c-0.2609253 0 -0.47244263 -0.21151733 -0.47244263 -0.47244072z" fill-rule="nonzero"></path><path stroke="#777777" stroke-width="1.0" stroke-linejoin="round" stroke-linecap="butt" d="m107.39917 26.260384l0 0c0 -0.26092148 0.21151733 -0.47244072 0.47244263 -0.47244072l0 0c0.12529755 0 0.24546051 0.049776077 0.33406067 0.13837433c0.08860016 0.08860016 0.13837433 0.20876884 0.13837433 0.3340664l0 0c0 0.2609234 -0.21151733 0.47244072 -0.472435 0.47244072l0 0c-0.2609253 0 -0.47244263 -0.21151733 -0.47244263 -0.47244072z" fill-rule="nonzero"></path><path fill="#cfe2f3" d="m105.32393 28.3687l0 0c0 -0.01449585 0.011749268 -0.026247025 0.026245117 -0.026247025l5.36483 0c0.006958008 0 0.013633728 0.0027656555 0.018554688 0.007686615c0.0049209595 0.004922867 0.0076904297 0.011598587 0.0076904297 0.01856041l0 0.10498619c0 0.01449585 -0.011749268 0.026247025 -0.026245117 0.026247025l-5.36483 0c-0.01449585 0 -0.026245117 -0.011751175 -0.026245117 -0.026247025z" fill-rule="nonzero"></path><path stroke="#777777" stroke-width="1.0" stroke-linejoin="round" stroke-linecap="butt" d="m105.32393 28.3687l0 0c0 -0.01449585 0.011749268 -0.026247025 0.026245117 -0.026247025l5.36483 0c0.006958008 0 0.013633728 0.0027656555 0.018554688 0.007686615c0.0049209595 0.004922867 0.0076904297 0.011598587 0.0076904297 0.01856041l0 0.10498619c0 0.01449585 -0.011749268 0.026247025 -0.026245117 0.026247025l-5.36483 0c-0.01449585 0 -0.026245117 -0.011751175 -0.026245117 -0.026247025z" fill-rule="nonzero"></path><path fill="#cfe2f3" d="m101.81167 28.495602l0 0c0 -0.26092148 0.21151733 -0.47244072 0.47244263 -0.47244072l0 0c0.12529755 0 0.24546814 0.04977417 0.3340683 0.13837433c0.08860016 0.08860016 0.13837433 0.20876694 0.13837433 0.3340664l0 0c0 0.26092148 -0.21152496 0.47244072 -0.47244263 0.47244072l0 0c-0.2609253 0 -0.47244263 -0.21151924 -0.47244263 -0.47244072z" fill-rule="nonzero"></path><path stroke="#777777" stroke-width="1.0" stroke-linejoin="round" stroke-linecap="butt" d="m101.81167 28.495602l0 0c0 -0.26092148 0.21151733 -0.47244072 0.47244263 -0.47244072l0 0c0.12529755 0 0.24546814 0.04977417 0.3340683 0.13837433c0.08860016 0.08860016 0.13837433 0.20876694 0.13837433 0.3340664l0 0c0 0.26092148 -0.21152496 0.47244072 -0.47244263 0.47244072l0 0c-0.2609253 0 -0.47244263 -0.21151924 -0.47244263 -0.47244072z" fill-rule="nonzero"></path></g></svg>

