<?xml version="1.0" standalone="yes"?>

<svg version="1.1" viewBox="0.0 0.0 129.0 129.0" fill="none" stroke="none" stroke-linecap="square" stroke-miterlimit="10" xmlns="http://www.w3.org/2000/svg" xmlns:xlink="http://www.w3.org/1999/xlink"><clipPath id="p.0"><path d="m0 0l129.0 0l0 129.0l-129.0 0l0 -129.0z" clip-rule="nonzero"></path></clipPath><g clip-path="url(#p.0)"><path fill="#000000" fill-opacity="0.0" d="m0 0l129.0 0l0 129.0l-129.0 0z" fill-rule="nonzero"></path><path fill="#000000" fill-opacity="0.0" d="m28.893972 101.964485l0 0c-3.0883484 0 -5.5919495 -2.503601 -5.5919495 -5.5919495l0 -63.745068c0 -1.483078 0.5891514 -2.9054127 1.6378441 -3.9541054c1.0486946 -1.0486946 2.4710274 -1.6378441 3.9541054 -1.6378441l94.51444 0c3.0883484 0 5.5919495 2.5035992 5.5919495 5.5919495l0 63.745068c0 3.0883484 -2.503601 5.5919495 -5.5919495 5.5919495z" fill-rule="nonzero"></path><path stroke="#777777" stroke-width="1.0" stroke-linejoin="round" stroke-linecap="butt" d="m28.893972 101.964485l0 0c-3.0883484 0 -5.5919495 -2.503601 -5.5919495 -5.5919495l0 -63.745068c0 -1.483078 0.5891514 -2.9054127 1.6378441 -3.9541054c1.0486946 -1.0486946 2.4710274 -1.6378441 3.9541054 -1.6378441l94.51444 0c3.0883484 0 5.5919495 2.5035992 5.5919495 5.5919495l0 63.745068c0 3.0883484 -2.503601 5.5919495 -5.5919495 5.5919495z" fill-rule="nonzero"></path><path fill="#000000" fill-opacity="0.0" d="m32.573845 97.143005l0 -65.45282l86.78351 0l0 65.45282z" fill-rule="nonzero"></path><path stroke="#777777" stroke-width="1.0" stroke-linejoin="round" stroke-linecap="butt" d="m32.573845 97.143005l0 -65.45282l86.78351 0l0 65.45282z" fill-rule="nonzero"></path><path fill="#000000" fill-opacity="0.0" d="m124.18099 66.73105l0 0c-1.2308121 0 -2.2285767 -0.9977722 -2.2285767 -2.2285843l0 0c0 -0.591053 0.23479462 -1.1579018 0.65273285 -1.57584c0.41793823 -0.41794205 0.984787 -0.65273666 1.5758438 -0.65273666l0 0c1.2308121 0 2.2285767 0.9977684 2.2285767 2.2285767l0 0c0 1.2308121 -0.9977646 2.2285843 -2.2285767 2.2285843z" fill-rule="nonzero"></path><path stroke="#777777" stroke-width="1.0" stroke-linejoin="round" stroke-linecap="butt" d="m124.18099 66.73105l0 0c-1.2308121 0 -2.2285767 -0.9977722 -2.2285767 -2.2285843l0 0c0 -0.591053 0.23479462 -1.1579018 0.65273285 -1.57584c0.41793823 -0.41794205 0.984787 -0.65273666 1.5758438 -0.65273666l0 0c1.2308121 0 2.2285767 0.9977684 2.2285767 2.2285767l0 0c0 1.2308121 -0.9977646 2.2285843 -2.2285767 2.2285843z" fill-rule="nonzero"></path><path fill="#000000" d="m28.34607 64.041084l0 0c0.22754478 0 0.41200638 0.16769409 0.41200638 0.37454987l0 0c0 0.099342346 -0.04340744 0.1946106 -0.12067413 0.2648468c-0.077264786 0.070243835 -0.18206024 0.109703064 -0.29133224 0.109703064l0 0c-0.22754478 0 -0.41200638 -0.16768646 -0.41200638 -0.37454987l0 0c0 -0.20685577 0.1844616 -0.37454987 0.41200638 -0.37454987z" fill-rule="nonzero"></path><path stroke="#777777" stroke-width="1.0" stroke-linejoin="round" stroke-linecap="butt" d="m28.34607 64.041084l0 0c0.22754478 0 0.41200638 0.16769409 0.41200638 0.37454987l0 0c0 0.099342346 -0.04340744 0.1946106 -0.12067413 0.2648468c-0.077264786 0.070243835 -0.18206024 0.109703064 -0.29133224 0.109703064l0 0c-0.22754478 0 -0.41200638 -0.16768646 -0.41200638 -0.37454987l0 0c0 -0.20685577 0.1844616 -0.37454987 0.41200638 -0.37454987z" fill-rule="nonzero"></path></g></svg>

